<svg width="200" height="200" viewBox="0 0 200 200" fill="none" xmlns="http://www.w3.org/2000/svg">
  <!-- Background -->
  <circle cx="100" cy="100" r="80" fill="#F0F9FF" opacity="0.5"/>
  <path d="M40 40l120 120M160 40L40 160" stroke="#E1F3FF" stroke-width="2"/>
  
  <!-- Stack of Books -->
  <rect x="40" y="140" width="120" height="25" rx="4" fill="#80D0C7"/>
  <rect x="45" y="115" width="110" height="25" rx="4" fill="#0093E9"/>
  <rect x="50" y="90" width="100" height="25" rx="4" fill="#80D0C7"/>
  
  <!-- Open Book -->
  <path d="M60 50h80v40H60z" fill="#0093E9"/>
  <path d="M100 50v40" stroke="white" stroke-width="2"/>
  <path d="M70 60h20M70 70h20M70 80h20" stroke="white" stroke-width="2"/>
  <path d="M110 60h20M110 70h20M110 80h20" stroke="white" stroke-width="2"/>
  
  <!-- Document Icons -->
  <rect x="150" y="60" width="20" height="25" rx="2" fill="#80D0C7"/>
  <rect x="30" y="60" width="20" height="25" rx="2" fill="#80D0C7"/>
  
  <!-- Decorative Lines -->
  <path d="M155 65h10M155 70h10M155 75h10" stroke="white" stroke-width="1"/>
  <path d="M35 65h10M35 70h10M35 75h10" stroke="white" stroke-width="1"/>
</svg>