<svg width="200" height="200" viewBox="0 0 200 200" fill="none" xmlns="http://www.w3.org/2000/svg">
  <!-- Background -->
  <circle cx="100" cy="100" r="80" fill="#F0F9FF" opacity="0.5"/>
  <path d="M40 40l120 120M160 40L40 160" stroke="#E1F3FF" stroke-width="2"/>
  
  <!-- Briefcase -->
  <rect x="40" y="80" width="120" height="80" rx="8" fill="#80D0C7"/>
  <rect x="80" y="60" width="40" height="20" rx="4" fill="#0093E9"/>
  <rect x="50" y="90" width="100" height="60" rx="4" fill="white"/>
  
  <!-- Document Icons -->
  <rect x="60" y="100" width="25" height="30" rx="2" fill="#0093E9" opacity="0.2"/>
  <rect x="95" y="100" width="25" height="30" rx="2" fill="#0093E9" opacity="0.2"/>
  <rect x="130" y="100" width="25" height="30" rx="2" fill="#0093E9" opacity="0.2"/>
  
  <!-- Graduate Cap -->
  <path d="M85 50l15-10 15 10-15 10z" fill="#0093E9"/>
  <rect x="97" y="50" width="6" height="20" fill="#0093E9"/>
  
  <!-- Decorative Elements -->
  <circle cx="40" cy="40" r="6" fill="#0093E9" opacity="0.3"/>
  <circle cx="160" cy="40" r="6" fill="#0093E9" opacity="0.3"/>
  <circle cx="40" cy="160" r="6" fill="#0093E9" opacity="0.3"/>
  <circle cx="160" cy="160" r="6" fill="#0093E9" opacity="0.3"/>
</svg>