<svg width="200" height="200" viewBox="0 0 200 200" fill="none" xmlns="http://www.w3.org/2000/svg">
  <!-- Background Elements -->
  <circle cx="100" cy="100" r="80" fill="#F0F9FF" opacity="0.5"/>
  <path d="M40 40l120 120M160 40L40 160" stroke="#E1F3FF" stroke-width="2"/>
  
  <!-- Building Base -->
  <rect x="40" y="100" width="120" height="80" fill="#80D0C7"/>
  <rect x="35" y="90" width="130" height="10" fill="#0093E9"/>
  
  <!-- Columns -->
  <rect x="50" y="60" width="20" height="40" rx="2" fill="#0093E9"/>
  <rect x="90" y="60" width="20" height="40" rx="2" fill="#0093E9"/>
  <rect x="130" y="60" width="20" height="40" rx="2" fill="#0093E9"/>
  
  <!-- Roof -->
  <path d="M30 60L100 30l70 30" fill="#80D0C7"/>
  <path d="M30 60L100 30l70 30" stroke="#0093E9" stroke-width="2"/>
  
  <!-- Windows -->
  <rect x="55" y="110" width="20" height="30" rx="2" fill="white"/>
  <rect x="90" y="110" width="20" height="30" rx="2" fill="white"/>
  <rect x="125" y="110" width="20" height="30" rx="2" fill="white"/>
  <rect x="55" y="150" width="20" height="20" rx="2" fill="white"/>
  <rect x="90" y="150" width="20" height="20" rx="2" fill="white"/>
  <rect x="125" y="150" width="20" height="20" rx="2" fill="white"/>
  
  <!-- Decorative Elements -->
  <circle cx="100" cy="75" r="8" fill="#0093E9"/>
  <path d="M95 75h10M100 70v10" stroke="white" stroke-width="2"/>
  
  <!-- Steps -->
  <rect x="60" y="180" width="80" height="5" fill="#0093E9"/>
  <rect x="70" y="185" width="60" height="5" fill="#0093E9"/>
  <rect x="80" y="190" width="40" height="5" fill="#0093E9"/>
</svg>