<svg width="170" height="57" viewBox="0 0 170 57" fill="none" xmlns="http://www.w3.org/2000/svg">
<path d="M9.144 41.432C7.896 41.432 6.756 41.192 5.724 40.712C4.692 40.208 3.864 39.452 3.24 38.444C2.64 37.436 2.34 36.164 2.34 34.628V22.64H7.272V35.348C7.272 35.684 7.356 35.996 7.524 36.284C7.692 36.572 7.92 36.8 8.208 36.968C8.496 37.136 8.808 37.22 9.144 37.22C9.48 37.22 9.792 37.136 10.08 36.968C10.368 36.8 10.596 36.572 10.764 36.284C10.932 35.996 11.016 35.684 11.016 35.348V29.012C11.016 27.572 11.292 26.348 11.844 25.34C12.42 24.332 13.212 23.564 14.22 23.036C15.252 22.484 16.452 22.208 17.82 22.208C19.188 22.208 20.376 22.484 21.384 23.036C22.416 23.564 23.208 24.332 23.76 25.34C24.336 26.348 24.624 27.572 24.624 29.012V35.348C24.624 35.684 24.708 35.996 24.876 36.284C25.044 36.572 25.272 36.8 25.56 36.968C25.848 37.136 26.16 37.22 26.496 37.22C26.856 37.22 27.168 37.136 27.432 36.968C27.72 36.8 27.948 36.572 28.116 36.284C28.284 35.996 28.368 35.684 28.368 35.348V22.64H33.3V34.628C33.3 36.164 32.988 37.436 32.364 38.444C31.764 39.452 30.948 40.208 29.916 40.712C28.884 41.192 27.744 41.432 26.496 41.432C25.272 41.432 24.144 41.192 23.112 40.712C22.08 40.208 21.252 39.452 20.628 38.444C20.004 37.436 19.692 36.164 19.692 34.628V28.292C19.692 27.932 19.608 27.62 19.44 27.356C19.272 27.068 19.044 26.84 18.756 26.672C18.492 26.504 18.18 26.42 17.82 26.42C17.484 26.42 17.172 26.504 16.884 26.672C16.596 26.84 16.368 27.068 16.2 27.356C16.032 27.62 15.948 27.932 15.948 28.292V34.628C15.948 36.164 15.636 37.436 15.012 38.444C14.388 39.452 13.56 40.208 12.528 40.712C11.52 41.192 10.392 41.432 9.144 41.432ZM47.2404 41C45.1524 41 43.3284 40.604 41.7684 39.812C40.2324 38.996 39.0324 37.892 38.1684 36.5C37.3284 35.108 36.9084 33.548 36.9084 31.82C36.9084 29.876 37.3044 28.184 38.0964 26.744C38.8884 25.304 39.9684 24.188 41.3364 23.396C42.7044 22.604 44.2524 22.208 45.9804 22.208C48.0444 22.208 49.7124 22.64 50.9844 23.504C52.2804 24.368 53.2284 25.532 53.8284 26.996C54.4284 28.436 54.7284 30.044 54.7284 31.82C54.7284 32.06 54.7164 32.348 54.6924 32.684C54.6684 32.996 54.6324 33.236 54.5844 33.404H42.1644C42.3564 34.148 42.6804 34.772 43.1364 35.276C43.6164 35.78 44.2044 36.164 44.9004 36.428C45.6204 36.668 46.4244 36.788 47.3124 36.788H52.4244V41H47.2404ZM42.1284 30.092H49.7964C49.7484 29.636 49.6644 29.216 49.5444 28.832C49.4244 28.424 49.2564 28.064 49.0404 27.752C48.8244 27.44 48.5724 27.176 48.2844 26.96C47.9964 26.744 47.6604 26.576 47.2764 26.456C46.8924 26.336 46.4724 26.276 46.0164 26.276C45.4164 26.276 44.8764 26.384 44.3964 26.6C43.9404 26.816 43.5564 27.104 43.2444 27.464C42.9324 27.824 42.6804 28.232 42.4884 28.688C42.3204 29.144 42.2004 29.612 42.1284 30.092Z" fill="#25C2A0"/>
<path d="M58.2753 41V36.788H67.2393C67.5273 36.788 67.7793 36.728 67.9953 36.608C68.2353 36.488 68.4153 36.32 68.5353 36.104C68.6793 35.888 68.7513 35.648 68.7513 35.384C68.7513 35.096 68.6793 34.844 68.5353 34.628C68.4153 34.412 68.2353 34.244 67.9953 34.124C67.7793 33.98 67.5273 33.908 67.2393 33.908H63.7833C62.6073 33.908 61.5393 33.728 60.5793 33.368C59.6433 32.984 58.8873 32.384 58.3113 31.568C57.7593 30.728 57.4833 29.636 57.4833 28.292C57.4833 27.26 57.7353 26.324 58.2393 25.484C58.7673 24.62 59.4633 23.936 60.3273 23.432C61.2153 22.904 62.1873 22.64 63.2433 22.64H71.8473V26.852H63.7113C63.3513 26.852 63.0273 26.972 62.7393 27.212C62.4753 27.452 62.3433 27.764 62.3433 28.148C62.3433 28.532 62.4753 28.856 62.7393 29.12C63.0033 29.36 63.3273 29.48 63.7113 29.48H67.1673C68.4873 29.48 69.6273 29.684 70.5873 30.092C71.5473 30.476 72.2913 31.088 72.8193 31.928C73.3473 32.768 73.6113 33.872 73.6113 35.24C73.6113 36.296 73.3473 37.268 72.8193 38.156C72.2913 39.02 71.5833 39.716 70.6953 40.244C69.8073 40.748 68.8113 41 67.7073 41H58.2753ZM77.4689 41V14.72H82.4009V23.936C83.1689 23.312 83.9969 22.868 84.8849 22.604C85.7729 22.34 86.6489 22.208 87.5129 22.208C89.2889 22.208 90.7529 22.58 91.9049 23.324C93.0809 24.068 93.9569 25.064 94.5329 26.312C95.1089 27.56 95.3969 28.94 95.3969 30.452V41H90.4649V30.452C90.4649 29.708 90.2849 29.036 89.9249 28.436C89.5649 27.812 89.0729 27.32 88.4489 26.96C87.8489 26.6 87.1769 26.42 86.4329 26.42C85.7129 26.42 85.0409 26.6 84.4169 26.96C83.8169 27.296 83.3249 27.764 82.9409 28.364C82.5809 28.94 82.4009 29.588 82.4009 30.308V41H77.4689ZM107.31 41.432C105.63 41.432 104.166 41 102.918 40.136C101.67 39.272 100.698 38.12 100.002 36.68C99.3304 35.216 98.9944 33.608 98.9944 31.856C98.9944 30.056 99.3784 28.424 100.146 26.96C100.938 25.496 102.066 24.344 103.53 23.504C104.994 22.64 106.746 22.208 108.786 22.208C110.85 22.208 112.59 22.64 114.006 23.504C115.422 24.368 116.502 25.532 117.246 26.996C117.99 28.46 118.362 30.08 118.362 31.856V41H113.43V37.94H113.358C112.998 38.588 112.542 39.176 111.99 39.704C111.462 40.232 110.814 40.652 110.046 40.964C109.278 41.276 108.366 41.432 107.31 41.432ZM108.714 37.22C109.674 37.22 110.502 36.98 111.198 36.5C111.894 36.02 112.422 35.372 112.782 34.556C113.166 33.716 113.358 32.792 113.358 31.784C113.358 30.776 113.166 29.876 112.782 29.084C112.422 28.268 111.894 27.62 111.198 27.14C110.502 26.66 109.674 26.42 108.714 26.42C107.73 26.42 106.878 26.66 106.158 27.14C105.462 27.62 104.922 28.268 104.538 29.084C104.178 29.876 103.998 30.776 103.998 31.784C103.998 32.792 104.178 33.716 104.538 34.556C104.922 35.372 105.462 36.02 106.158 36.5C106.878 36.98 107.73 37.22 108.714 37.22ZM122.851 41V27.86C122.851 26.228 123.307 24.956 124.219 24.044C125.155 23.108 126.439 22.64 128.071 22.64H133.147V26.852H128.935C128.623 26.852 128.347 26.96 128.107 27.176C127.891 27.392 127.783 27.668 127.783 28.004V41H122.851ZM145.115 41C143.027 41 141.203 40.604 139.643 39.812C138.107 38.996 136.907 37.892 136.043 36.5C135.203 35.108 134.783 33.548 134.783 31.82C134.783 29.876 135.179 28.184 135.971 26.744C136.763 25.304 137.843 24.188 139.211 23.396C140.579 22.604 142.127 22.208 143.855 22.208C145.919 22.208 147.587 22.64 148.859 23.504C150.155 24.368 151.103 25.532 151.703 26.996C152.303 28.436 152.603 30.044 152.603 31.82C152.603 32.06 152.591 32.348 152.567 32.684C152.543 32.996 152.507 33.236 152.459 33.404H140.039C140.231 34.148 140.555 34.772 141.011 35.276C141.491 35.78 142.079 36.164 142.775 36.428C143.495 36.668 144.299 36.788 145.187 36.788H150.299V41H145.115ZM140.003 30.092H147.671C147.623 29.636 147.539 29.216 147.419 28.832C147.299 28.424 147.131 28.064 146.915 27.752C146.699 27.44 146.447 27.176 146.159 26.96C145.871 26.744 145.535 26.576 145.151 26.456C144.767 26.336 144.347 26.276 143.891 26.276C143.291 26.276 142.751 26.384 142.271 26.6C141.815 26.816 141.431 27.104 141.119 27.464C140.807 27.824 140.555 28.232 140.363 28.688C140.195 29.144 140.075 29.612 140.003 30.092Z" fill="#3B3B3B"/>
<path d="M162.118 26.9409C162.879 27.3759 163.861 27.1136 164.188 26.2999C164.959 24.3866 165.213 22.2937 164.909 20.2344C164.529 17.6487 163.292 15.2654 161.396 13.4657C159.501 11.666 157.057 10.5539 154.455 10.3071C152.383 10.1106 150.306 10.4721 148.435 11.3403C147.64 11.7096 147.428 12.7032 147.902 13.4414V13.4414C148.376 14.1797 149.355 14.3782 150.168 14.0499C151.425 13.5427 152.792 13.34 154.155 13.4694C156.05 13.649 157.829 14.4588 159.209 15.7691C160.589 17.0794 161.49 18.8146 161.767 20.6972C161.966 22.0527 161.835 23.4281 161.393 24.7089C161.107 25.5381 161.356 26.506 162.118 26.9409V26.9409Z" fill="#25C2A0"/>
<path d="M158.057 24.9821C158.628 25.308 159.366 25.1112 159.587 24.4922C159.957 23.4551 160.07 22.3373 159.908 21.2361C159.687 19.74 158.972 18.361 157.875 17.3197C156.779 16.2784 155.364 15.6349 153.859 15.4921C152.751 15.387 151.64 15.5577 150.624 15.9808C150.017 16.2333 149.859 16.9806 150.214 17.5338V17.5338C150.568 18.087 151.304 18.2293 151.932 18.0359C152.479 17.8676 153.057 17.8068 153.634 17.8616C154.61 17.9541 155.526 18.371 156.236 19.0456C156.947 19.7202 157.41 20.6136 157.553 21.5829C157.637 22.1564 157.607 22.7369 157.467 23.2915C157.306 23.9288 157.486 24.6562 158.057 24.9821V24.9821Z" fill="#25C2A0"/>
</svg>
