<svg width="73" height="57" viewBox="0 0 73 57" fill="none" xmlns="http://www.w3.org/2000/svg">
<path d="M9.144 41.432C7.896 41.432 6.756 41.192 5.724 40.712C4.692 40.208 3.864 39.452 3.24 38.444C2.64 37.436 2.34 36.164 2.34 34.628V22.64H7.272V35.348C7.272 35.684 7.356 35.996 7.524 36.284C7.692 36.572 7.92 36.8 8.208 36.968C8.496 37.136 8.808 37.22 9.144 37.22C9.48 37.22 9.792 37.136 10.08 36.968C10.368 36.8 10.596 36.572 10.764 36.284C10.932 35.996 11.016 35.684 11.016 35.348V29.012C11.016 27.572 11.292 26.348 11.844 25.34C12.42 24.332 13.212 23.564 14.22 23.036C15.252 22.484 16.452 22.208 17.82 22.208C19.188 22.208 20.376 22.484 21.384 23.036C22.416 23.564 23.208 24.332 23.76 25.34C24.336 26.348 24.624 27.572 24.624 29.012V35.348C24.624 35.684 24.708 35.996 24.876 36.284C25.044 36.572 25.272 36.8 25.56 36.968C25.848 37.136 26.16 37.22 26.496 37.22C26.856 37.22 27.168 37.136 27.432 36.968C27.72 36.8 27.948 36.572 28.116 36.284C28.284 35.996 28.368 35.684 28.368 35.348V22.64H33.3V34.628C33.3 36.164 32.988 37.436 32.364 38.444C31.764 39.452 30.948 40.208 29.916 40.712C28.884 41.192 27.744 41.432 26.496 41.432C25.272 41.432 24.144 41.192 23.112 40.712C22.08 40.208 21.252 39.452 20.628 38.444C20.004 37.436 19.692 36.164 19.692 34.628V28.292C19.692 27.932 19.608 27.62 19.44 27.356C19.272 27.068 19.044 26.84 18.756 26.672C18.492 26.504 18.18 26.42 17.82 26.42C17.484 26.42 17.172 26.504 16.884 26.672C16.596 26.84 16.368 27.068 16.2 27.356C16.032 27.62 15.948 27.932 15.948 28.292V34.628C15.948 36.164 15.636 37.436 15.012 38.444C14.388 39.452 13.56 40.208 12.528 40.712C11.52 41.192 10.392 41.432 9.144 41.432ZM47.2404 41C45.1524 41 43.3284 40.604 41.7684 39.812C40.2324 38.996 39.0324 37.892 38.1684 36.5C37.3284 35.108 36.9084 33.548 36.9084 31.82C36.9084 29.876 37.3044 28.184 38.0964 26.744C38.8884 25.304 39.9684 24.188 41.3364 23.396C42.7044 22.604 44.2524 22.208 45.9804 22.208C48.0444 22.208 49.7124 22.64 50.9844 23.504C52.2804 24.368 53.2284 25.532 53.8284 26.996C54.4284 28.436 54.7284 30.044 54.7284 31.82C54.7284 32.06 54.7164 32.348 54.6924 32.684C54.6684 32.996 54.6324 33.236 54.5844 33.404H42.1644C42.3564 34.148 42.6804 34.772 43.1364 35.276C43.6164 35.78 44.2044 36.164 44.9004 36.428C45.6204 36.668 46.4244 36.788 47.3124 36.788H52.4244V41H47.2404ZM42.1284 30.092H49.7964C49.7484 29.636 49.6644 29.216 49.5444 28.832C49.4244 28.424 49.2564 28.064 49.0404 27.752C48.8244 27.44 48.5724 27.176 48.2844 26.96C47.9964 26.744 47.6604 26.576 47.2764 26.456C46.8924 26.336 46.4724 26.276 46.0164 26.276C45.4164 26.276 44.8764 26.384 44.3964 26.6C43.9404 26.816 43.5564 27.104 43.2444 27.464C42.9324 27.824 42.6804 28.232 42.4884 28.688C42.3204 29.144 42.2004 29.612 42.1284 30.092Z" fill="#25C2A0"/>
<path d="M65.1177 24.9409C65.8795 25.3759 66.8608 25.1136 67.1885 24.2999C67.9589 22.3866 68.2126 20.2937 67.9093 18.2344C67.5285 15.6487 66.2916 13.2654 64.3964 11.4657C62.5012 9.66604 60.0573 8.55387 57.4554 8.30713C55.3832 8.11061 53.3062 8.47206 51.4352 9.34034C50.6395 9.70958 50.4283 10.7032 50.902 11.4414V11.4414C51.3756 12.1797 52.3551 12.3782 53.1685 12.0499C54.4247 11.5427 55.7915 11.34 57.1555 11.4694C59.0499 11.649 60.8293 12.4588 62.2091 13.7691C63.589 15.0794 64.4895 16.8146 64.7668 18.6972C64.9664 20.0527 64.8346 21.4281 64.393 22.7089C64.1071 23.5381 64.356 24.506 65.1177 24.9409V24.9409Z" fill="#25C2A0"/>
<path d="M61.057 22.9821C61.6278 23.308 62.3659 23.1112 62.5868 22.4922C62.9568 21.4551 63.0699 20.3373 62.9077 19.2361C62.6873 17.74 61.9717 16.361 60.8751 15.3197C59.7785 14.2784 58.3644 13.6349 56.859 13.4921C55.7509 13.387 54.6404 13.5577 53.6238 13.9808C53.017 14.2333 52.8586 14.9806 53.2135 15.5338V15.5338C53.5685 16.087 54.3042 16.2293 54.9323 16.0359C55.479 15.8676 56.0571 15.8068 56.6343 15.8616C57.6096 15.9541 58.5257 16.371 59.2362 17.0456C59.9466 17.7202 60.4103 18.6136 60.553 19.5829C60.6375 20.1564 60.6067 20.7369 60.4668 21.2915C60.3061 21.9288 60.4863 22.6562 61.057 22.9821V22.9821Z" fill="#25C2A0"/>
</svg>
